# xmcd
#
# Track frame offsets: 
#        150
#        11694
#        21551
#        37011
#        48379
#        56161
#        67350
#        79001
#        89510
#        102829
#        117835
#        132102
#        145831
#        159727
#        170842
#        182630
#        193380
#        206560
#        219091
#        229278
#        247282
#        261977
#        275255
#        287556
#        299773
#
# Disc length: 4143 seconds
#
# Revision: 6
# Processed by: cddbd v1.5.2PL0 Copyright (c) Steve Scherf et al.
# Submitted via: ExactAudioCopyFreeDBPlugin 1.0
#
DISCID=94102d19
DTITLE=Various Artist - Diggin' Gold: A Galaxy Of West Coast Blues
DYEAR=2004
DGENRE=Blues
TTITLE0=Little Johnny Taylor - On My Way Back Home
TTITLE1=Rob Robinson - Compact Baby
TTITLE2=Del Cunningham - Just Wondering
TTITLE3=Clay Hammond - My Baby Left Me Crying
TTITLE4=Billy Keene - Too Far Beyond Repair
TTITLE5=Little Johnny Taylor - Looking At The Future
TTITLE6=Joe Johnson - Rattlesnake, Baby, Rattlesnake
TTITLE7=Bill McAfee - I Don't Know Why
TTITLE8=Clay Hammond - It's All Over Now (No Use Crying)
TTITLE9=Little Johnny Taylor - Darling I Wonder
TTITLE10=Good Time Charlie - Watch That Stuff
TTITLE11=Rob Robinson - Talk To You Baby
TTITLE12=Saunders King - S K Blues
TTITLE13=Little Johnny Taylor - You Gotta Go On
TTITLE14=Bill McAfee - My Love
TTITLE15=Clay Hammond - Baby It's All Right
TTITLE16=Little Johnny Taylor - My Love Is Real
TTITLE17=Billy Keene - You're A Deserter
TTITLE18=Joe Johnson - Gold Digging Man
TTITLE19=Little Johnny Taylor - As Quick As I Can
TTITLE20=Del Cunningham - Lay Up In Bed And Read
TTITLE21=Rob Robinson - Nobody But You
TTITLE22=Little Johnny Taylor - She's Yours, She's Mine
TTITLE23=Clay Hammond - There's Gonna Be Some Changes
TTITLE24=Little Johnny Taylor - Kiss Me Baby
EXTD=
EXTT0=
EXTT1=
EXTT2=
EXTT3=
EXTT4=
EXTT5=
EXTT6=
EXTT7=
EXTT8=
EXTT9=
EXTT10=
EXTT11=
EXTT12=
EXTT13=
EXTT14=
EXTT15=
EXTT16=
EXTT17=
EXTT18=
EXTT19=
EXTT20=
EXTT21=
EXTT22=
EXTT23=
EXTT24=
PLAYORDER=
